# xmcd
#
# Track frame offsets:
#	150
#	12999
#	30099
#	45281
#	63494
#	80464
#	98759
#	118511
#	138022
#	154041
#	171593
#	186369
#	203564
#	220790
#	233917
#	254882
#	274380
#	310741
#	347022
#
# Disc length: 4630 seconds
#
# Revision: 0
# Processed by: cddbd v1.5.1PL2 Copyright (c) Steve Scherf et al.
# Submitted via: EasyCDDAExtractor 9.1.0.1
#
DISCID=05121413
DTITLE=Various Artist - Nº 1
DYEAR=1900
DGENRE=Dance
TTITLE0=Eric Prydz - Call On Me
TTITLE1=Black Eyed Peas - Hey Mama
TTITLE2=Kevin Lyttle - Last Drop
TTITLE3=Jojo - Leave (Get Out)
TTITLE4=Craig David - World Filled With Love
TTITLE5=Daniel Bedingfield - If You're Not The One
TTITLE6=The Gift - Driving You Slow
TTITLE7=Shaznay Lewis - Never Felt Like This Before
TTITLE8=Juanes Com Taboo (Black Eyed Peas) - La Paga
TTITLE9=Nina Sky Feat Jabba - Move Ya Body
TTITLE10=The Underdog Project - Saturday Night
TTITLE11=O-Zone - Despre Time
TTITLE12=Ivete Sangalo - Sorte Grande
TTITLE13=The Carrs - Summer Sunshine
TTITLE14=Nelly Furtado - Try
TTITLE15=Simply Red - You Make Me Feel Brand New
TTITLE16=Phil Collins - True Colours
TTITLE17=Vários  - Data
TTITLE18=Vários  - Data
EXTD=
EXTT0=
EXTT1=
EXTT2=
EXTT3=
EXTT4=
EXTT5=
EXTT6=
EXTT7=
EXTT8=
EXTT9=
EXTT10=
EXTT11=
EXTT12=
EXTT13=
EXTT14=
EXTT15=
EXTT16=
EXTT17=
EXTT18=
PLAYORDER=
